# xmcd
#
# Track frame offsets:
#	150
#	18914
#	34976
#	52848
#	73611
#	88776
#	108108
#	124618
#	143506
#	161446
#	179547
#	197033
#
# Disc length: 2869 seconds
#
# Revision: 1
# Processed by: cddbd v1.4PL0 Copyright (c) Steve Scherf et al.
# Submitted via: audiograbber 1.82.01
#
DISCID=970b330c
DTITLE=Various Artist - Nashville Underground Sampler Series Volume I
DYEAR=1900
DGENRE=
TTITLE0=Chuck Jones - Your Love Amazes Me
TTITLE1=Chuck Jones - Inexpressible
TTITLE2=Stephony Smith - It's Your Love
TTITLE3=Stephony Smith - A Thousand Years In Peace
TTITLE4=Gary Burr - For Love
TTITLE5=Gary Burr - What Mattered Most
TTITLE6=Victoria Shaw - Why Didn't You Tell Me
TTITLE7=Victoria Shaw - The River
TTITLE8=Chuck Cannon - It All Comes Down To Love
TTITLE9=Chuck Cannon - I Love The Way You Love Me
TTITLE10=Pam Rose - I'll Still Be Loving You
TTITLE11=Pam Rose - I Knew You When
EXTD=
EXTT0=
EXTT1=
EXTT2=
EXTT3=
EXTT4=
EXTT5=
EXTT6=
EXTT7=
EXTT8=
EXTT9=
EXTT10=
EXTT11=
PLAYORDER=
